<?xml version="1.0" encoding="utf-8"?>
<!-- Generator: Adobe Illustrator 27.5.0, SVG Export Plug-In . SVG Version: 6.00 Build 0)  -->
<svg version="1.1" xmlns="http://www.w3.org/2000/svg" xmlns:xlink="http://www.w3.org/1999/xlink" x="0px" y="0px"
	 viewBox="0 0 500 500" style="enable-background:new 0 0 500 500;" xml:space="preserve">
<g id="BACKGROUND">
	<rect style="fill:#201F24;" width="500" height="500"/>
</g>
<g id="OBJECTS">
	<path style="fill:#FFFFFF;" d="M308.742,441.332c-0.162-0.601-0.321-1.203-0.484-1.804c5.944-1.652,11.881-3.326,17.79-5.105
		c6.233-1.847,12.433-3.819,18.598-5.915c-6.371,1.346-12.708,2.815-19.011,4.41c-5.989,1.488-11.949,3.079-17.903,4.694
		c-1.654-5.943-3.329-11.88-5.108-17.789c-1.848-6.233-3.819-12.433-5.912-18.598c1.348,6.37,2.819,12.707,4.413,19.01
		c1.487,5.989,3.078,11.949,4.691,17.903c-0.898,0.25-1.795,0.505-2.692,0.757c-1.118-3.965-2.253-7.926-3.454-11.868
		c-1.641-5.481-3.405-10.927-5.292-16.341c1.142,5.618,2.406,11.202,3.793,16.752c0.981,4.007,2.029,7.995,3.092,11.979
		c-4.421,1.244-8.837,2.504-13.236,3.828c-6.233,1.848-12.433,3.819-18.599,5.912c6.37-1.348,12.707-2.819,19.01-4.413
		c4.454-1.106,8.89-2.276,13.322-3.463c0.161,0.601,0.319,1.202,0.482,1.802c-5.191,1.447-10.376,2.916-15.532,4.487
		c-5.481,1.641-10.928,3.405-16.341,5.292c5.618-1.142,11.202-2.406,16.752-3.793c5.236-1.282,10.444-2.666,15.646-4.072
		c1.446,5.191,2.914,10.376,4.485,15.533c1.64,5.481,3.406,10.927,5.295,16.34c-1.139-5.618-2.402-11.203-3.79-16.753
		c-1.282-5.236-2.667-10.444-4.075-15.645c0.897-0.25,1.792-0.505,2.688-0.757c1.323,4.719,2.664,9.433,4.077,14.127
		c1.847,6.233,3.819,12.432,5.915,18.598c-1.346-6.371-2.815-12.708-4.41-19.011c-1.183-4.762-2.438-9.504-3.711-14.241
		c3.666-1.037,7.328-2.09,10.975-3.201c5.481-1.64,10.927-3.406,16.34-5.295c-5.618,1.139-11.203,2.402-16.753,3.79
		C316.103,439.389,312.421,440.353,308.742,441.332z M304.156,442.559c-0.166-0.595-0.336-1.189-0.503-1.784
		c0.896-0.241,1.793-0.478,2.688-0.721c0.165,0.596,0.335,1.19,0.501,1.786C305.948,442.08,305.051,442.317,304.156,442.559z"/>
	<path style="fill:#FFFFFF;" d="M189.257,71.311c1.995-0.205,3.99-0.468,5.985-0.839c4.833-0.951,9.667-2.198,14.5-4.707
		c-4.833-2.509-9.667-3.756-14.5-4.707c-1.995-0.37-3.99-0.633-5.985-0.839c0.453-0.527,0.925-1.035,1.37-1.569
		c2.559-3.107,5.013-6.32,7.115-9.885c-3.565,2.102-6.778,4.555-9.885,7.115c-0.535,0.445-1.043,0.917-1.569,1.37
		c-0.205-1.995-0.468-3.99-0.839-5.985c-0.951-4.833-2.198-9.667-4.707-14.5c-2.509,4.833-3.756,9.667-4.707,14.5
		c-0.37,1.993-0.633,3.985-0.838,5.977c-0.525-0.452-1.032-0.923-1.565-1.367c-3.106-2.561-6.32-5.013-9.89-7.11
		c2.097,3.57,4.549,6.784,7.11,9.89c0.441,0.529,0.908,1.032,1.357,1.553c-1.989,0.204-3.978,0.465-5.967,0.833
		c-4.833,0.948-9.667,2.2-14.5,4.724c4.833,2.524,9.667,3.776,14.5,4.724c1.989,0.368,3.978,0.629,5.967,0.833
		c-0.449,0.521-0.916,1.024-1.357,1.553c-2.561,3.106-5.013,6.32-7.11,9.89c3.57-2.097,6.784-4.549,9.89-7.11
		c0.529-0.441,1.032-0.908,1.553-1.357c0.204,1.989,0.465,3.978,0.833,5.967c0.949,4.833,2.2,9.667,4.724,14.5
		c2.524-4.833,3.775-9.667,4.724-14.5c0.368-1.992,0.63-3.983,0.834-5.975c0.523,0.45,1.027,0.918,1.557,1.36
		c3.107,2.559,6.32,5.013,9.885,7.115c-2.102-3.565-4.555-6.778-7.115-9.885C190.182,72.345,189.71,71.837,189.257,71.311z"/>
	<path style="fill:#FFFFFF;" d="M463.521,96.515c-3.946-6.304-8.462-12.038-13.151-17.599c-3.432-4.036-6.985-7.952-10.643-11.763
		c1.765-0.061,3.529-0.103,5.294-0.222c4.083-0.221,8.167-0.545,12.25-1.166c-4.083-0.621-8.167-0.945-12.25-1.166
		c-1.826-0.124-3.651-0.163-5.477-0.228c1.426-1.626,2.799-3.306,4.106-5.051c2.444-3.331,4.74-6.809,6.446-10.878
		c-4.069,1.706-7.548,4.002-10.878,6.446c-1.726,1.292-3.389,2.649-4.999,4.058l-0.031-4.051c-0.081-3.624-0.112-7.248-0.25-10.872
		c-0.221-7.248-0.545-14.496-1.166-21.744c-0.621,7.248-0.945,14.496-1.166,21.744c-0.138,3.624-0.169,7.248-0.25,10.872l-0.03,3.87
		c-3.797-3.637-7.695-7.174-11.713-10.59c-5.562-4.688-11.295-9.205-17.591-13.159c3.953,6.297,8.471,12.029,13.159,17.591
		c3.434,4.039,6.989,7.957,10.646,11.772c-1.768,0.055-3.536,0.122-5.305,0.216c-4.083,0.22-8.167,0.546-12.25,1.17
		c4.083,0.625,8.167,0.951,12.25,1.171c1.822,0.097,3.644,0.167,5.467,0.222c-1.426,1.624-2.797,3.302-4.103,5.045
		c-2.446,3.329-4.739,6.81-6.438,10.886c4.076-1.699,7.557-3.992,10.886-6.438c1.723-1.29,3.383-2.644,4.989-4.051l0.029,4.037
		c0.084,3.624,0.11,7.248,0.25,10.872c0.22,7.248,0.546,14.496,1.171,21.744c0.624-7.248,0.951-14.496,1.171-21.744
		c0.139-3.624,0.166-7.248,0.25-10.872l0.028-3.859c3.792,3.638,7.688,7.172,11.703,10.586
		C451.483,88.054,457.218,92.569,463.521,96.515z"/>
	<path style="fill:#FFFFFF;" d="M329.504,73.336c-3.479-2.051-7.091-3.706-10.733-5.27c-2.527-1.066-5.086-2.037-7.658-2.967
		c2.779-1.199,5.552-2.414,8.3-3.688c3.968-1.826,7.909-3.716,11.774-5.789c-4.185,1.309-8.294,2.8-12.376,4.355
		c-3.004,1.134-5.979,2.335-8.948,3.551c1.64-4.992,3.201-10.011,4.647-15.069c1.721-6.028,3.31-12.101,4.526-18.299
		c-2.784,5.67-5.194,11.466-7.472,17.307c-1.91,4.901-3.705,9.84-5.421,14.807c-1.626-2.765-3.268-5.522-4.972-8.243
		c-2.308-3.709-4.677-7.382-7.219-10.956c1.82,3.99,3.813,7.88,5.867,11.735c1.416,2.675,2.888,5.319,4.374,7.954
		c-2.609-0.817-5.232-1.593-7.886-2.274c-3.846-0.962-7.724-1.827-11.736-2.295c3.477,2.056,7.088,3.714,10.731,5.276
		c2.525,1.065,5.083,2.035,7.654,2.963c-2.778,1.198-5.549,2.411-8.296,3.684c-3.968,1.826-7.909,3.717-11.773,5.791
		c4.186-1.307,8.296-2.797,12.377-4.352c2.995-1.131,5.961-2.329,8.921-3.542c-1.641,4.985-3.181,10.005-4.626,15.056
		c-1.722,6.028-3.309,12.101-4.52,18.301c2.789-5.668,5.201-11.464,7.478-17.305c1.906-4.896,3.719-9.824,5.43-14.787
		c1.623,2.757,3.26,5.506,4.96,8.219c2.308,3.708,4.677,7.382,7.216,10.957c-1.823-3.989-3.816-7.879-5.87-11.734
		c-1.417-2.677-2.889-5.322-4.376-7.959c2.611,0.816,5.236,1.592,7.892,2.273C321.616,71.995,325.493,72.864,329.504,73.336z"/>
	<path style="fill:#FFFFFF;" d="M201.492,319.238c6.917-0.221,13.833-0.545,20.75-1.166c-6.917-0.621-13.833-0.946-20.75-1.166
		c-3.458-0.138-6.917-0.169-10.375-0.25l-4.84-0.039c1.65-1.795,3.253-3.637,4.79-5.545c2.559-3.215,4.991-6.558,7-10.324
		c-3.766,2.009-7.109,4.44-10.324,7c-1.907,1.536-3.749,3.138-5.543,4.788l-0.037-4.838c-0.084-3.458-0.11-6.917-0.25-10.375
		c-0.22-6.917-0.546-13.833-1.17-20.75c-0.624,6.917-0.951,13.833-1.171,20.75c-0.14,3.458-0.166,6.917-0.25,10.375l-0.037,4.83
		c-1.792-1.649-3.632-3.25-5.537-4.785c-3.214-2.561-6.559-4.991-10.33-6.994c2.003,3.772,4.433,7.116,6.994,10.33
		c1.535,1.906,3.136,3.745,4.785,5.537l-4.83,0.037c-3.458,0.084-6.917,0.11-10.375,0.25c-6.917,0.22-13.833,0.546-20.75,1.171
		c6.917,0.624,13.833,0.951,20.75,1.171c3.458,0.139,6.917,0.166,10.375,0.25l4.83,0.037c-1.649,1.792-3.25,3.632-4.785,5.537
		c-2.561,3.214-4.991,6.559-6.994,10.33c3.771-2.003,7.116-4.433,10.33-6.994c1.906-1.536,3.747-3.137,5.539-4.787l0.039,4.832
		c0.081,3.458,0.112,6.917,0.25,10.375c0.221,6.917,0.545,13.833,1.166,20.75c0.621-6.917,0.945-13.833,1.166-20.75
		c0.138-3.458,0.169-6.917,0.25-10.375l0.039-4.84c1.795,1.65,3.637,3.253,5.545,4.79c3.215,2.56,6.558,4.991,10.324,7
		c-2.009-3.766-4.44-7.109-7-10.324c-1.537-1.908-3.14-3.75-4.79-5.545l4.84-0.039C194.576,319.407,198.034,319.376,201.492,319.238
		z"/>
	<path style="fill:#FFFFFF;" d="M190.335,448.622c3.589,2.725,7.246,5.37,11.092,7.788c-3.049-3.369-6.287-6.512-9.593-9.574
		c-1.635-1.553-3.339-3.023-5.011-4.532l-2.849-2.452l6.84-1.551c3.239-0.79,6.49-1.53,9.717-2.375
		c6.467-1.636,12.911-3.374,19.292-5.401c-6.646,0.814-13.229,1.917-19.789,3.122c-3.286,0.575-6.55,1.255-9.824,1.886l-5.617,1.176
		l1.574-1.923c1.385-1.776,2.808-3.52,4.149-5.332c2.725-3.59,5.37-7.246,7.788-11.092c-3.369,3.048-6.512,6.287-9.574,9.593
		c-1.553,1.635-3.023,3.339-4.532,5.01l-2.452,2.849l-1.551-6.84c-0.79-3.24-1.53-6.49-2.375-9.717
		c-1.636-6.467-3.374-12.911-5.401-19.292c0.814,6.646,1.917,13.229,3.122,19.789c0.575,3.286,1.255,6.55,1.886,9.824l1.176,5.614
		c-2.388-1.942-4.798-3.858-7.252-5.723c-3.589-2.725-7.246-5.369-11.095-7.785c3.046,3.372,6.284,6.516,9.59,9.578
		c2.574,2.381,5.2,4.7,7.86,6.98l-6.838,1.548c-3.239,0.792-6.49,1.528-9.717,2.375c-6.467,1.635-12.911,3.374-19.291,5.405
		c6.647-0.81,13.23-1.912,19.79-3.118c3.286-0.574,6.549-1.258,9.824-1.887l5.611-1.177c-1.942,2.388-3.857,4.797-5.721,7.249
		c-2.725,3.589-5.369,7.246-7.785,11.095c3.372-3.046,6.516-6.284,9.578-9.59c2.381-2.574,4.7-5.2,6.98-7.86l1.548,6.837
		c0.792,3.239,1.528,6.49,2.375,9.717c1.635,6.467,3.374,12.911,5.405,19.291c-0.81-6.647-1.912-13.23-3.118-19.79
		c-0.574-3.286-1.258-6.549-1.887-9.824l-1.178-5.615l1.921,1.572C186.779,445.858,188.523,447.281,190.335,448.622z"/>
	<path style="fill:#FFFFFF;" d="M468.771,187.004c0-1.035-14.138-1.885-32.266-1.989c7.38-7.53,12.677-13.55,12.241-13.986
		c-0.436-0.436-6.456,4.861-13.986,12.241c-0.104-18.127-0.955-32.266-1.989-32.266c-1.034,0-1.885,14.138-1.989,32.266
		c-7.53-7.38-13.55-12.676-13.986-12.241c-0.436,0.436,4.861,6.456,12.241,13.986c-18.127,0.104-32.266,0.955-32.266,1.989
		s14.138,1.885,32.266,1.989c-7.38,7.53-12.676,13.55-12.241,13.986c0.436,0.436,6.456-4.861,13.986-12.241
		c0.104,18.127,0.955,32.266,1.989,32.266c1.035,0,1.886-14.138,1.989-32.266c7.53,7.38,13.55,12.676,13.986,12.241
		c0.436-0.436-4.861-6.456-12.241-13.986C454.633,188.89,468.771,188.039,468.771,187.004z"/>
	<polygon style="fill:#FFFFFF;" points="187.413,187.32 210.742,177.572 186.139,183.398 199.283,172.017 182.804,180.975 
		180.742,148.489 178.681,180.975 162.201,172.017 175.345,183.398 150.742,177.572 174.072,187.32 150.742,197.067 175.345,191.24 
		162.201,203.145 178.681,193.664 180.742,225.52 182.804,193.664 199.283,203.145 186.139,191.24 210.742,197.067 	"/>
	<polygon style="fill:#FFFFFF;" points="67.629,191.785 94.82,187.004 67.629,182.223 73.39,174.004 65.171,179.765 60.39,152.575 
		55.609,179.765 47.39,174.004 53.151,182.223 25.96,187.004 53.151,191.785 47.39,200.004 55.609,194.243 60.39,221.434 
		65.171,194.243 73.39,200.004 	"/>
	<polygon style="fill:#FFFFFF;" points="313.896,321.923 323.835,324.774 314.974,320.163 335.76,318.072 314.61,315.945 
		323.654,310.933 314.128,313.938 327.347,297.762 310.887,311.213 313.739,301.274 309.127,310.135 307.037,289.349 
		304.91,310.499 299.898,301.455 302.903,310.981 286.727,297.762 300.178,314.221 290.239,311.37 299.1,315.982 278.314,318.072 
		299.464,320.199 290.42,325.211 299.946,322.206 286.727,338.382 303.186,324.931 300.335,334.87 304.946,326.009 307.037,346.795 
		309.164,325.645 314.176,334.689 311.171,325.163 327.347,338.382 	"/>
	<path style="fill:#FFFFFF;" d="M467.939,318.072c-5.861-1.671-11.723-2.508-17.584-3.134c-2.698-0.27-5.396-0.466-8.095-0.608
		c1.722-7.442,6.989-12.736,7.042-12.789c-0.053,0.053-5.347,5.32-12.789,7.042c-0.142-2.698-0.338-5.396-0.608-8.095
		c-0.627-5.861-1.463-11.723-3.134-17.584c-1.671,5.861-2.507,11.723-3.134,17.584c-0.28,2.801-0.485,5.602-0.627,8.403
		c-3.63-0.578-7.477-2.301-11.301-5.869c3.571,3.815,5.297,7.655,5.879,11.28c-2.8,0.141-5.601,0.345-8.401,0.625
		c-5.861,0.624-11.723,1.464-17.584,3.145c5.861,1.681,11.723,2.521,17.584,3.145c2.698,0.27,5.396,0.466,8.095,0.607
		c-1.724,7.434-6.989,12.726-7.042,12.779c0.053-0.053,5.345-5.318,12.779-7.042c0.141,2.698,0.337,5.396,0.607,8.095
		c0.624,5.861,1.465,11.723,3.145,17.584c1.681-5.861,2.521-11.723,3.145-17.584c0.28-2.8,0.484-5.601,0.625-8.401
		c3.625,0.582,7.465,2.308,11.28,5.879c-3.568-3.824-5.291-7.67-5.869-11.301c2.801-0.142,5.602-0.346,8.403-0.627
		C456.217,320.58,462.078,319.743,467.939,318.072z"/>
	<g>
		<path style="fill:#FFFFFF;" d="M438.862,428.73c0,0.145-0.036,25.119-23.612,25.935c23.576,0.78,23.612,25.772,23.612,25.917
			c0-0.145,0.036-25.137,23.612-25.917C438.898,453.848,438.862,428.875,438.862,428.73z"/>
		<path style="fill:#FFFFFF;" d="M404.723,418.169c0,0.102-0.025,17.675-16.615,18.25c16.59,0.549,16.615,18.135,16.615,18.237
			c0-0.102,0.026-17.688,16.615-18.237C404.749,435.844,404.723,418.271,404.723,418.169z"/>
		<path style="fill:#FFFFFF;" d="M426.258,397.514c0,0.068-0.017,11.711-11.008,12.091c10.991,0.364,11.008,12.015,11.008,12.083
			c0-0.068,0.017-11.719,11.008-12.083C426.275,409.225,426.258,397.582,426.258,397.514z"/>
		<path style="fill:#FFFFFF;" d="M469.014,454.656c0,0.052-0.013,8.958-8.421,9.249c8.408,0.278,8.421,9.191,8.421,9.243
			c0-0.052,0.013-8.964,8.421-9.243C469.027,463.614,469.014,454.708,469.014,454.656z"/>
	</g>
	<g>
		<path style="fill:#FFFFFF;" d="M59.078,285.519c0,25.97-6.837,34.905-29.933,34.905c23.203,0,29.933,8.936,29.933,34.905
			c0-25.97,9.744-34.905,29.949-34.905C69.036,320.425,59.078,311.489,59.078,285.519z"/>
		<path style="fill:#FFFFFF;" d="M45.522,265.006c0,11.761-3.097,15.808-13.556,15.808c10.508,0,13.556,4.047,13.556,15.808
			c0-11.761,4.413-15.808,13.563-15.808C50.032,280.814,45.522,276.767,45.522,265.006z"/>
		<path style="fill:#FFFFFF;" d="M78.072,339.522c0,11.761-3.097,15.808-13.556,15.808c10.508,0,13.556,4.047,13.556,15.808
			c0-11.761,4.413-15.808,13.563-15.808C82.582,355.33,78.072,351.283,78.072,339.522z"/>
		<path style="fill:#FFFFFF;" d="M40.807,336.576c0,7.671-2.02,10.31-8.841,10.31c6.853,0,8.841,2.639,8.841,10.31
			c0-7.671,2.878-10.31,8.846-10.31C43.749,346.886,40.807,344.247,40.807,336.576z"/>
		<path style="fill:#FFFFFF;" d="M76.14,287.08c0,5.064-1.333,6.806-5.837,6.806c4.524,0,5.837,1.742,5.837,6.806
			c0-5.064,1.9-6.806,5.84-6.806C78.082,293.886,76.14,292.144,76.14,287.08z"/>
	</g>
	<path style="fill:#FFFFFF;" d="M77.56,438.557c-3.185-0.025-6.369-0.024-9.553-0.018c3.45-0.457,6.899-0.918,10.344-1.406
		l8.938-1.287c2.975-0.465,5.954-0.896,8.925-1.392c-3,0.27-5.991,0.605-8.987,0.905l-8.974,1.01
		c-5.607,0.644-11.205,1.359-16.806,2.045c1.984-2.822,3.989-5.628,5.937-8.476c2.163-3.157,4.312-6.324,6.372-9.555
		c-2.395,2.991-4.702,6.045-6.994,9.109c-1.993,2.66-3.933,5.358-5.889,8.043c-0.064-5.221-0.099-10.442-0.206-15.663
		c-0.116-5.724-0.248-11.447-0.489-17.17c-0.171,5.725-0.232,11.451-0.277,17.175c-0.026,3.189-0.025,6.377-0.019,9.565
		c-0.457-3.453-0.918-6.906-1.409-10.356c-0.845-5.961-1.707-11.919-2.677-17.864c0.561,5.997,1.231,11.98,1.917,17.961
		c0.641,5.607,1.359,11.204,2.043,16.806c-2.822-1.984-5.628-3.989-8.476-5.937c-3.157-2.163-6.324-4.312-9.555-6.372
		c2.991,2.395,6.045,4.702,9.11,6.994c2.66,1.993,5.357,3.933,8.043,5.889c-5.221,0.064-10.442,0.099-15.663,0.206
		c-5.724,0.116-11.447,0.247-17.17,0.489c5.725,0.171,11.45,0.232,17.175,0.277c3.189,0.026,6.377,0.025,9.565,0.019
		c-3.453,0.457-6.906,0.919-10.356,1.409c-5.961,0.845-11.919,1.707-17.864,2.677c5.997-0.561,11.98-1.231,17.961-1.917
		c5.607-0.641,11.204-1.359,16.806-2.043c-1.985,2.821-3.988,5.629-5.938,8.475l-3.228,4.748c-1.046,1.604-2.121,3.187-3.142,4.809
		c1.206-1.489,2.359-3.016,3.541-4.523l3.455-4.585c1.991-2.661,3.932-5.357,5.888-8.044c0.062,5.221,0.099,10.442,0.204,15.662
		l0.193,8.586c0.101,2.862,0.167,5.724,0.298,8.585c0.096-2.863,0.127-5.725,0.192-8.588l0.086-8.587
		c0.025-3.185,0.024-6.369,0.018-9.553c0.457,3.45,0.918,6.899,1.406,10.344l1.287,8.938c0.465,2.975,0.896,5.954,1.392,8.925
		c-0.27-3-0.605-5.991-0.905-8.987l-1.01-8.974c-0.644-5.607-1.359-11.204-2.045-16.805c2.821,1.985,5.629,3.988,8.475,5.938
		l4.747,3.228c1.604,1.046,3.188,2.121,4.809,3.142c-1.489-1.206-3.017-2.359-4.524-3.541l-4.585-3.455
		c-2.661-1.991-5.357-3.932-8.044-5.888c5.221-0.062,10.442-0.099,15.663-0.204l8.586-0.193c2.862-0.101,5.723-0.167,8.585-0.298
		c-2.863-0.096-5.725-0.127-8.588-0.192L77.56,438.557z"/>
	<g>
		<path style="fill:#FFFFFF;" d="M336.985,156.118c-29.503,27.576-44.477,15.567-44.477,15.567
			c9.005,16.51-8.158,36.185-13.745,41.935l-1.673,1.653c29.503-27.576,44.477-15.567,44.477-15.567
			c-9.005-16.51,8.158-36.186,13.745-41.935L336.985,156.118z"/>
		<path style="fill:#FFFFFF;" d="M304.143,136.736c-12.546,11.726-18.913,6.62-18.913,6.62c3.829,7.021-3.469,15.387-5.845,17.832
			l-0.712,0.703c12.546-11.726,18.913-6.62,18.913-6.62c-3.829-7.021,3.469-15.387,5.845-17.832L304.143,136.736z"/>
		<path style="fill:#FFFFFF;" d="M308.242,212.118c-12.546,11.726-18.913,6.62-18.913,6.62c3.829,7.021-3.469,15.388-5.845,17.832
			l-0.712,0.703c12.546-11.726,18.913-6.62,18.913-6.62c-3.829-7.021,3.469-15.387,5.845-17.832L308.242,212.118z"/>
		<path style="fill:#FFFFFF;" d="M330.522,206.884c-8.367,7.821-12.614,4.415-12.614,4.415c2.554,4.682-2.314,10.262-3.898,11.893
			l-0.475,0.469c8.367-7.82,12.614-4.415,12.614-4.415c-2.554-4.682,2.314-10.262,3.898-11.893L330.522,206.884z"/>
		<path style="fill:#FFFFFF;" d="M319.708,150.022c-6.081,5.684-9.168,3.209-9.168,3.209c1.856,3.403-1.681,7.458-2.833,8.643
			l-0.345,0.341c6.081-5.684,9.168-3.209,9.168-3.209c-1.856-3.403,1.681-7.459,2.833-8.644L319.708,150.022z"/>
	</g>
	<polygon style="fill:#FFFFFF;" points="63.933,67.716 88.64,65.765 63.769,63.802 86.039,40.117 62.216,62.516 60.39,29.492 
		58.559,62.609 44.903,50.279 57.107,63.794 32.14,65.765 56.724,67.706 34.741,91.414 58.196,69.666 60.39,102.038 62.593,69.532 
		75.877,81.252 	"/>
</g>
</svg>
